<?xml version="1.0" standalone="no"?>
<!DOCTYPE svg PUBLIC "-//W3C//DTD SVG 20010904//EN"
 "http://www.w3.org/TR/2001/REC-SVG-20010904/DTD/svg10.dtd">
<svg version="1.0" xmlns="http://www.w3.org/2000/svg"
 width="256.000000pt" height="256.000000pt" viewBox="0 0 256.000000 256.000000"
 preserveAspectRatio="xMidYMid meet">
<metadata>
Created by potrace 1.11, written by Peter Selinger 2001-2013
</metadata>
<g transform="translate(0.000000,256.000000) scale(0.100000,-0.100000)"
fill="#000000" stroke="none">
<path d="M1198 2548 c-120 -16 -226 -93 -288 -210 -26 -49 -174 -419 -631
-1582 -39 -98 -74 -201 -79 -230 -16 -102 6 -187 68 -258 17 -19 28 -38 25
-42 -4 -4 0 -4 8 -1 9 3 23 -3 33 -14 10 -11 22 -19 26 -16 4 2 7 -2 7 -9 0
-7 -6 -13 -13 -13 -7 0 -11 4 -8 9 6 9 2 9 -48 11 -18 0 -37 5 -41 11 -5 7 -7
2 -4 -11 3 -13 0 -26 -5 -30 -7 -3 -8 -1 -4 5 11 18 -5 14 -27 -6 -11 -9 -17
-12 -14 -6 7 12 -14 25 -45 29 -14 1 -15 -1 -6 -12 8 -11 7 -12 -5 -7 -11 4
-14 0 -12 -13 2 -10 4 -20 4 -23 1 -3 5 2 11 10 5 8 12 11 17 7 4 -5 1 -12 -7
-18 -13 -8 -13 -10 0 -19 11 -7 16 -5 18 4 2 8 10 17 19 20 12 5 13 3 5 -7
-12 -14 -11 -42 2 -54 4 -4 7 -3 6 2 -5 22 1 27 17 14 9 -8 14 -9 10 -2 -4 6
-1 14 5 17 7 3 1 3 -15 1 -17 -2 -25 0 -21 6 3 6 8 8 11 5 3 -3 14 -1 24 4 15
9 17 6 14 -20 l-4 -30 21 20 c25 23 46 27 28 5 -11 -13 -10 -14 4 -9 9 3 24 0
34 -7 12 -10 12 -7 -3 10 l-20 24 25 -14 c14 -7 28 -13 32 -14 3 0 10 -3 14
-8 11 -10 24 -9 24 4 0 5 -4 7 -10 4 -6 -3 -7 1 -4 10 6 14 8 14 21 -2 8 -10
12 -13 9 -7 -3 6 4 20 17 30 16 14 18 14 9 2 -8 -10 -9 -19 -3 -22 5 -4 12 -2
16 4 3 5 12 10 18 10 7 0 4 -5 -7 -11 -14 -9 -15 -13 -6 -19 14 -9 42 -2 36 9
-2 3 13 6 34 6 26 0 35 -3 29 -11 -5 -7 -3 -11 6 -11 8 0 15 6 15 13 0 21 31
26 37 5 7 -28 33 -34 56 -14 11 10 17 12 12 4 -5 -9 -3 -12 6 -9 8 3 13 11 11
17 -1 7 2 10 8 6 6 -3 8 -10 5 -15 -3 -5 0 -12 6 -16 8 -4 9 -3 5 4 -4 7 -2
12 3 12 6 0 11 -4 11 -9 0 -5 18 -7 40 -6 22 2 38 -1 35 -5 -6 -10 15 -8 31 3
7 4 25 -3 40 -15 19 -15 24 -16 15 -5 -12 16 -8 22 12 18 5 -1 6 3 3 8 -4 5
-1 13 5 17 8 4 9 3 5 -4 -4 -7 -2 -12 4 -12 6 0 8 -4 5 -10 -3 -6 1 -7 9 -4 9
3 14 10 13 16 -1 6 8 12 21 14 12 2 22 0 22 -5 0 -6 -9 -8 -20 -6 -19 4 -19 3
-4 -21 15 -23 32 -36 19 -14 -11 18 5 31 25 20 16 -9 18 -8 14 5 -5 11 -2 13
10 9 9 -3 14 -9 11 -13 -2 -4 3 -8 11 -8 9 0 13 6 9 16 -3 8 -3 12 1 8 4 -4
14 -1 22 6 13 9 14 9 8 0 -4 -8 -2 -13 4 -13 6 0 9 -4 6 -8 -2 -4 6 -8 19 -8
19 0 22 3 13 13 -8 10 -8 17 1 26 10 9 11 8 6 -5 -5 -13 -2 -18 10 -18 10 0
13 -4 9 -12 -5 -9 -3 -9 9 1 9 7 14 18 10 25 -3 6 0 6 8 -2 16 -14 33 -16 24
-2 -3 6 -1 10 4 10 15 0 14 -6 -5 -38 -13 -22 -13 -24 -1 -8 9 10 20 16 24 13
5 -3 15 -1 23 5 13 8 13 9 -1 5 -9 -3 -16 1 -16 8 0 11 6 11 29 -1 17 -9 26
-20 22 -26 -5 -7 -3 -8 5 -4 7 5 10 15 7 23 -3 8 -2 12 3 8 5 -3 11 -2 14 2 2
5 2 3 1 -4 -2 -7 3 -10 13 -6 9 4 14 2 10 -3 -3 -6 12 -9 36 -8 57 3 57 3 57
15 0 6 -5 7 -12 2 -20 -12 -37 -12 -44 -1 -4 6 -10 5 -15 -3 -5 -8 -9 -9 -9
-3 0 6 7 17 16 24 12 11 15 11 12 0 -3 -15 20 -21 37 -10 23 15 110 -4 100
-21 -3 -5 1 -6 9 -3 9 3 13 11 9 18 -4 6 2 4 12 -4 10 -8 16 -10 12 -3 -4 6
-2 15 4 19 7 4 9 3 6 -2 -3 -6 -2 -16 4 -24 7 -12 9 -11 10 5 1 11 1 24 0 28
-1 5 3 6 9 2 6 -3 8 -11 5 -16 -4 -5 1 -9 9 -9 9 0 16 -4 16 -8 0 -5 7 -9 15
-9 8 0 12 4 9 9 -3 4 0 8 6 8 6 0 9 3 7 8 -3 4 10 7 29 8 19 0 34 -3 34 -7 0
-4 -11 -6 -25 -4 -30 3 -42 -12 -26 -28 9 -9 11 -8 6 4 -6 17 19 20 44 4 10
-5 12 -4 7 3 -4 7 -3 12 3 12 5 0 12 -6 14 -12 4 -10 6 -10 6 0 1 7 6 10 13 6
8 -5 9 0 5 15 -4 16 -2 20 6 13 7 -5 22 -8 35 -6 12 2 22 0 22 -5 0 -6 -9 -8
-20 -6 -11 2 -22 0 -24 -4 -4 -7 14 -7 57 -2 5 1 6 11 2 24 -6 21 -5 21 6 2
17 -27 32 -36 43 -25 14 14 29 12 20 -2 -4 -7 -3 -8 5 -4 6 4 19 2 28 -6 15
-12 15 -11 3 9 -8 12 -18 19 -24 16 -5 -3 -6 -1 -2 5 8 13 36 5 36 -10 0 -5 5
-6 10 -3 6 4 8 10 5 15 -3 5 -1 11 4 14 5 3 7 -8 6 -25 -2 -28 -1 -29 14 -14
10 8 21 12 24 8 7 -6 11 12 8 30 -1 4 7 3 18 -2 10 -6 21 -7 25 -4 10 11 37
12 30 2 -3 -5 0 -9 6 -9 6 0 8 -5 4 -12 -4 -7 -3 -8 5 -4 6 4 9 11 6 16 -3 5
0 12 6 16 8 4 9 3 5 -4 -10 -17 29 -15 43 1 6 8 7 18 3 22 -4 5 -1 5 6 1 14
-8 1 -41 -20 -49 -7 -3 -2 -4 12 -3 14 2 25 9 25 17 1 8 7 13 14 11 8 -2 11 3
8 11 -3 7 1 14 8 14 7 0 11 -6 8 -12 -2 -7 6 -15 17 -18 15 -4 19 -10 14 -19
-4 -7 -3 -9 1 -5 12 10 16 39 5 32 -5 -3 -11 -1 -14 4 -4 5 8 7 26 5 24 -4 29
-2 18 5 -11 8 -7 9 15 7 23 -3 34 2 47 23 10 14 18 21 18 15 0 -5 -6 -16 -12
-23 -11 -11 -10 -13 4 -8 10 3 20 1 24 -5 4 -6 3 -8 -2 -5 -6 3 -10 -4 -11
-16 0 -12 1 -16 4 -9 3 6 9 10 14 6 5 -3 8 0 7 8 -2 7 4 12 13 12 9 -1 16 4
16 11 0 7 -6 11 -13 8 -8 -3 -11 2 -7 16 3 13 11 18 21 14 14 -4 15 -3 2 5
-17 13 -30 6 -30 -14 0 -8 -5 -14 -11 -14 -6 0 -8 9 -4 22 4 16 3 19 -3 9 -8
-11 -10 -11 -15 0 -4 10 -6 10 -6 2 -1 -7 -13 -13 -27 -13 -14 0 -23 -4 -19
-10 3 -5 2 -10 -3 -10 -6 0 -13 7 -16 16 -3 8 -2 12 3 9 5 -3 12 -1 16 5 4 6
11 8 16 5 5 -3 6 1 3 10 -6 14 -8 14 -19 -1 -11 -16 -13 -16 -22 0 -9 17 -10
17 -17 1 -3 -10 -2 -23 4 -30 7 -8 5 -12 -5 -12 -7 0 -14 3 -13 6 2 20 -4 31
-18 31 -8 0 -12 4 -9 10 3 5 1 10 -4 10 -16 0 -13 -18 4 -27 12 -7 11 -11 -8
-22 -19 -13 -21 -12 -9 1 10 13 9 18 -5 29 -15 12 -16 12 -10 -5 6 -16 5 -17
-8 -6 -9 8 -27 10 -47 6 -30 -6 -31 -5 -13 8 11 8 23 12 27 10 5 -3 8 0 8 6 0
7 7 9 16 6 8 -3 13 -2 10 3 -3 5 4 19 15 32 91 104 113 190 79 317 -7 26 -94
247 -193 492 -98 245 -249 618 -334 830 -85 212 -169 412 -187 445 -85 162
-239 238 -428 213z m158 -1088 l82 -225 -83 -3 c-46 -1 -124 -1 -174 0 l-89 3
47 130 c26 72 65 179 86 240 21 60 41 103 43 95 3 -8 42 -116 88 -240z m299
-823 c92 -242 142 -344 197 -398 22 -21 38 -42 34 -46 -3 -3 -6 -1 -6 4 0 13
-18 12 -39 -1 -10 -6 -12 -5 -7 2 4 7 1 12 -8 12 -9 0 -16 -4 -16 -9 0 -5 -11
-4 -24 2 -13 7 -22 16 -20 22 3 5 -1 3 -7 -7 -12 -15 -15 -15 -38 0 -26 16
-26 16 -8 -4 14 -17 14 -21 2 -21 -8 0 -12 3 -10 7 2 4 -12 7 -33 8 -20 1 -38
6 -40 12 -2 6 -8 8 -12 5 -5 -3 -6 -13 -3 -22 5 -12 1 -11 -15 5 -19 19 -69
21 -57 2 3 -5 0 -12 -6 -16 -8 -5 -9 -3 -4 6 6 10 3 12 -14 7 -14 -3 -24 0
-28 9 -3 8 -9 11 -14 8 -5 -3 -6 -10 -3 -16 4 -6 2 -8 -4 -4 -5 3 -12 3 -15
-1 -2 -5 -2 -2 0 6 2 9 -2 11 -13 7 -12 -5 -15 -2 -10 9 4 11 2 14 -7 8 -17
-11 -31 -10 -40 2 -4 5 -5 -2 -1 -17 4 -18 2 -28 -5 -28 -6 0 -10 3 -10 8 3
18 -2 32 -12 32 -6 0 -8 -7 -5 -16 4 -9 2 -13 -5 -8 -6 4 -15 1 -19 -6 -5 -8
-9 -8 -13 4 -4 9 -1 15 5 13 7 -1 13 7 15 18 3 18 2 18 -5 2 -10 -24 -15 -25
-38 -7 -17 13 -18 13 -8 0 9 -12 8 -18 -4 -30 -14 -13 -15 -12 -9 3 4 11 1 20
-8 23 -8 4 -12 11 -8 18 3 6 2 7 -2 3 -12 -10 -15 -38 -4 -32 5 4 6 -1 3 -9
-6 -16 -25 -23 -23 -9 3 21 -2 34 -11 28 -6 -4 -8 -10 -5 -15 3 -5 1 -11 -4
-15 -6 -3 -8 3 -6 14 2 11 -3 25 -10 31 -11 10 -13 6 -9 -17 l5 -28 -23 25
c-13 14 -19 20 -14 13 6 -9 0 -15 -23 -19 -17 -4 -28 -11 -24 -17 3 -6 1 -7
-5 -3 -6 4 -9 13 -5 22 3 9 0 14 -8 12 -8 -2 -13 3 -11 12 3 10 -3 9 -18 -5
-12 -11 -24 -19 -26 -17 -13 8 -23 -1 -18 -15 5 -14 4 -15 -4 -4 -6 8 -17 11
-27 7 -15 -5 -16 -4 -5 9 15 18 -1 20 -18 3 -9 -9 -12 -9 -12 1 0 7 -5 9 -10
6 -6 -4 -7 -11 -4 -17 4 -7 2 -8 -4 -4 -7 4 -12 1 -12 -6 0 -10 -2 -11 -8 0
-5 7 -16 10 -25 6 -10 -3 -17 -1 -17 6 0 6 5 8 10 5 6 -3 10 -1 10 4 0 13 -3
13 -24 5 -9 -3 -14 -10 -11 -14 3 -4 -3 -14 -13 -21 -15 -13 -16 -12 -3 3 9
13 10 18 2 18 -7 0 -10 4 -7 8 3 5 -1 9 -10 9 -10 0 -12 -7 -8 -21 4 -15 2
-17 -4 -8 -5 7 -15 14 -23 15 -8 2 -20 7 -28 11 -10 6 -12 5 -7 -2 4 -7 1 -12
-9 -12 -9 0 -13 5 -9 11 5 8 1 8 -14 0 -15 -8 -23 -8 -28 0 -3 6 -2 14 4 18
21 13 93 162 146 304 31 82 58 153 61 157 3 5 167 9 364 9 l359 1 27 -73z
m-582 -421 c4 -11 1 -13 -10 -9 -12 5 -14 3 -8 -8 8 -12 6 -12 -8 0 -18 14
-23 26 -8 16 5 -3 12 -1 16 5 8 13 12 13 18 -4z m-377 -14 c1 -7 0 -8 -3 -2
-3 8 -9 7 -19 -1 -12 -10 -13 -9 -8 5 7 18 26 17 30 -2z m29 -2 c3 -5 1 -10
-4 -10 -6 0 -11 5 -11 10 0 6 2 10 4 10 3 0 8 -4 11 -10z m45 0 c0 -5 -5 -10
-11 -10 -5 0 -7 5 -4 10 3 6 8 10 11 10 2 0 4 -4 4 -10z m395 0 c3 -5 1 -10
-4 -10 -6 0 -11 5 -11 10 0 6 2 10 4 10 3 0 8 -4 11 -10z m-842 -25 c-3 -9 -8
-14 -10 -11 -3 3 -2 9 2 15 9 16 15 13 8 -4z m-133 -15 c0 -5 -2 -10 -4 -10
-3 0 -8 5 -11 10 -3 6 -1 10 4 10 6 0 11 -4 11 -10z m178 -65 c-3 -3 -9 2 -12
12 -6 14 -5 15 5 6 7 -7 10 -15 7 -18z m322 11 c0 -3 -4 -8 -10 -11 -5 -3 -10
-1 -10 4 0 6 5 11 10 11 6 0 10 -2 10 -4z m1346 -24 c-18 -16 -18 -16 -6 6 6
13 14 21 18 18 3 -4 -2 -14 -12 -24z m-1372 3 c3 -8 1 -15 -4 -15 -6 0 -10 7
-10 15 0 8 2 15 4 15 2 0 6 -7 10 -15z m113 -5 c3 -10 2 -11 -4 -4 -4 6 -15
14 -23 17 -11 5 -9 6 4 4 11 -1 21 -9 23 -17z m30 5 c0 -8 -4 -15 -9 -15 -10
0 -11 14 -1 23 9 10 10 9 10 -8z m83 -10 c0 -5 5 -3 10 5 5 8 10 10 10 4 0
-18 -12 -24 -31 -14 -12 7 -20 7 -24 0 -7 -11 -25 -4 -25 9 0 5 14 8 30 7 17
0 30 -5 30 -11z m254 -1 c3 -8 2 -12 -4 -9 -6 3 -10 10 -10 16 0 14 7 11 14
-7z m526 4 c0 -4 -4 -8 -9 -8 -6 0 -12 4 -15 8 -3 5 1 9 9 9 8 0 15 -4 15 -9z
m110 2 c0 -5 -2 -10 -4 -10 -3 0 -8 5 -11 10 -3 6 -1 10 4 10 6 0 11 -4 11
-10z"/>
<path d="M904 235 c1 -8 6 -18 11 -22 4 -4 5 -3 2 4 -4 6 -2 13 5 15 8 3 6 6
-4 10 -10 4 -15 2 -14 -7z"/>
<path d="M1455 240 c-3 -5 -1 -10 4 -10 6 0 11 5 11 10 0 6 -2 10 -4 10 -3 0
-8 -4 -11 -10z"/>
<path d="M1784 231 c1 -17 26 -28 26 -11 0 6 -4 9 -9 5 -5 -3 -11 0 -14 7 -2
9 -4 8 -3 -1z"/>
<path d="M1115 230 c-3 -5 -1 -10 4 -10 6 0 11 5 11 10 0 6 -2 10 -4 10 -3 0
-8 -4 -11 -10z"/>
<path d="M1518 233 c-10 -2 -18 -9 -18 -14 0 -6 8 -5 20 1 11 6 20 13 20 15 0
3 -1 4 -2 4 -2 -1 -11 -3 -20 -6z"/>
<path d="M1646 232 c-3 -5 1 -9 9 -9 8 0 12 4 9 9 -3 4 -7 8 -9 8 -2 0 -6 -4
-9 -8z"/>
<path d="M190 206 c0 -4 6 -14 14 -21 14 -14 36 -2 36 20 0 5 -4 4 -9 -4 -8
-12 -12 -12 -25 -2 -9 8 -16 10 -16 7z"/>
<path d="M115 180 c6 -10 4 -12 -11 -6 -15 6 -17 5 -6 -5 20 -21 14 -34 -7
-15 -15 14 -21 15 -27 4 -4 -7 -4 -10 1 -6 11 10 37 -11 29 -23 -3 -5 0 -8 7
-7 7 2 13 -2 14 -9 0 -6 4 -15 9 -20 5 -4 6 -3 3 4 -4 6 -1 13 5 16 10 3 10 7
2 18 -6 8 -10 22 -9 31 2 10 -2 21 -7 25 -7 4 -8 1 -3 -7z"/>
<path d="M2361 112 c-6 -2 -11 -8 -11 -13 0 -6 5 -7 10 -4 6 3 10 0 10 -7 0
-8 5 -6 11 5 6 9 14 15 20 12 5 -4 9 -2 9 4 0 9 -25 11 -49 3z"/>
<path d="M436 87 c3 -10 9 -15 12 -12 3 3 0 11 -7 18 -10 9 -11 8 -5 -6z"/>
<path d="M606 91 c-4 -7 -5 -15 -2 -18 9 -9 19 4 14 18 -4 11 -6 11 -12 0z"/>
<path d="M2107 93 c-11 -11 -8 -20 7 -20 8 0 12 6 9 14 -6 15 -7 15 -16 6z"/>
<path d="M2247 83 c7 -17 20 -17 20 0 0 8 -6 14 -13 14 -7 0 -10 -6 -7 -14z"/>
<path d="M527 79 c7 -7 15 -10 18 -7 3 3 -2 9 -12 12 -14 6 -15 5 -6 -5z"/>
<path d="M2070 80 c0 -5 5 -10 10 -10 6 0 10 5 10 10 0 6 -4 10 -10 10 -5 0
-10 -4 -10 -10z"/>
<path d="M1470 69 c0 -5 5 -7 10 -4 6 3 10 2 10 -4 0 -5 9 -9 20 -8 13 1 16 5
10 11 -14 14 -50 18 -50 5z"/>
<path d="M1280 40 c-9 -6 -10 -10 -3 -10 6 0 15 5 18 10 8 12 4 12 -15 0z"/>
</g>
</svg>
